<svg width="61px" height="60px" viewBox="0 0 61 60">
    <g id="STARS" stroke="none" stroke-width="1" fill="none" fill-rule="evenodd" stroke-linecap="round" stroke-linejoin="round">
        <g id="Desktop_Main" transform="translate(-949.000000, -3192.000000)" stroke="#0088FF">
            <g id="Эффективность" transform="translate(-291.000000, 2847.000000)">
                <g id="3" transform="translate(1206.000000, 317.000000)">
                    <g id="ico_usp-3" transform="translate(35.000000, 29.000000)">
                        <path d="M57.0178845,0.485914206 C54.1435853,1.73197249 53.072498,4.95394811 54.0872949,6.16567444 C55.1017432,7.37740077 59.1813206,18.3170954 59.1813206,28.7445992 C59.1813206,39.1719286 58.5396441,46.4229422 54.9888137,51.4873414 C53.6721745,53.3649682 50.9308462,57.9591764 47.8871528,57.9591764 C44.8434594,57.9591764 23.8763938,51.4819389 15.0837534,44.2596805 C6.29111303,37.0372478 5.61493035,35.9370567 3.58568521,32.2175292 C1.55644008,28.4980016 0,24.9734865 0,22.3842994 C0,19.7951123 5.27666473,18.7918175 7.47478126,18.2670788 C9.67307207,17.7423402 11.8992467,19.192996 12.4347903,19.740216 C12.970334,20.2877846 13.167612,21.3062411 12.970334,22.3842994 C12.773056,23.4625319 11.8711886,23.9823909 11.8711886,23.9823909 C11.8711886,23.9823909 12.970334,27.0750553 12.970334,28.7445992 L12.970334,32.2175292 C12.970334,32.2175292 21.6221611,36.2185091 26.0183942,37.4825176 C30.4146272,38.7463518 33.2945032,37.2897706 37.178371,37.0576378 C43.1528284,36.7007249 45.745501,40.6494226 45.745501,40.6494226" id="Shape"></path>
                        <path d="M48.6803282,0 C48.6803282,0 44.2905433,3.85284708 40.7397128,6.0497437 C37.1887081,8.24664031 31.9334791,7.53333729 29.770043,4.88228293 C27.6067813,2.23122857 28.2831382,0 28.2831382,0" id="Shape"></path>
                        <path d="M45.8921717,17.0710737 C43.8515988,12.2184173 40.8167933,9.71828412 40.8167933,9.71828412" id="Shape"></path>
                        <path d="M30.6753703,5.83097047 C29.3937601,12.9031791 26.9485232,16.7347647 30.5558184,25.9679695 C32.537661,31.0409081 35.1162174,33.595589 37.4176784,34.9012489 C38.8179691,35.6957636 40.4352307,34.8336307 41.4338201,34.9892572 C42.6014551,35.1715477 43.7075715,35.7874316 44.9131982,34.4254812 C46.3265595,32.8289581 47.4375555,30.155771 47.4755472,26.3689737" id="Shape"></path>
                        <path d="M40.8167933,35.9576512 C40.9511435,36.3382654 40.9882257,36.7413609 40.9763827,37.1390539" id="Shape"></path>
                        <path d="M41.6386523,51.5302022 C38.1723447,51.2839532 31.2679618,48.5011478 29.6407666,44.2181927" id="Shape"></path>
                        <path d="M12.7260187,32.5562518 L11.1760267,33.5442105" id="Shape"></path>
                        <path d="M34.9858228,16.521083 C35.0265938,16.8785187 35.0671707,17.2361288 35.1077476,17.5933902" id="Shape"></path>
                        <path d="M35.3826253,7.28871309 C34.821812,9.27073 34.4643762,11.3858922 34.5027165,13.4485979" id="Shape"></path>
                    </g>
                </g>
            </g>
        </g>
    </g>
</svg>