<svg width="20px" height="21px" viewBox="0 0 20 21">
    <g id="STARS" stroke="none" stroke-width="1" fill="none" fill-rule="evenodd">
        <g id="Mob_Menu_Тренеровка" transform="translate(-280.000000, -20.000000)">
            <g id="Group-6">
                <g id="Шапка_моб" transform="translate(20.000000, 5.000000)">
                    <g id="call_mob" transform="translate(260.000000, 15.000000)">
                        <path d="M4.13110309,3.00004649 C3.93517312,2.99856857 3.74243199,3.03243429 3.56296617,3.08641396 C3.08439104,3.22930031 2.64722263,3.50584897 2.31306495,3.84212937 C0.690666115,5.4863588 -0.186459795,6.98824312 0.0334155564,8.68590524 C0.253290907,10.3835213 1.48412136,12.1138188 3.75471238,14.4149477 L5.99885321,16.6892912 C8.26944536,18.9904201 9.9766909,20.2450171 11.6518156,20.4678682 C13.3269402,20.6906733 14.8088745,19.8017677 16.4312674,18.1575383 C16.7630839,17.8188857 17.0430622,17.3686117 17.1840488,16.883618 C17.3250377,16.3986244 17.3218493,15.806915 16.9141838,15.3937791 C16.1167738,14.5856559 14.512876,13.4392601 13.7255153,13.0402654 C13.1928251,12.7703152 12.714143,12.9355189 12.255461,13.2561841 C11.8721538,13.5241766 11.5656224,13.8714314 11.3606454,14.0694778 C11.0611518,14.3588204 10.8246059,14.6052095 10.6433725,14.7604176 C10.4621389,14.9156257 10.3613303,14.9636115 10.2598801,14.969139 C10.1584299,14.9746665 9.983996,14.9388874 9.67753977,14.7316285 C9.37289998,14.5255902 8.95634381,14.1584018 8.41343512,13.6088513 C8.41109212,13.6065482 8.4087264,13.6039571 8.40633341,13.601654 L6.80844832,11.9750666 C6.26073502,11.4200116 5.89799686,10.9973292 5.69347962,10.6867517 C5.48896237,10.3761743 5.45368698,10.1993858 5.45912314,10.096574 C5.46455907,9.99378518 5.50481203,9.89154912 5.65797106,9.70792035 C5.81112987,9.52424552 6.06133486,9.29172125 6.34683707,8.9881914 C6.54223959,8.78047186 6.88490546,8.4698023 7.14933047,8.08133291 C7.41375571,7.69288656 7.66173112,7.20542853 7.35528011,6.58429669 C6.96159213,5.78633032 5.83753096,4.16805719 5.04012216,3.35991097 C4.83629009,3.153343 4.58778382,3.04891897 4.32995101,3.01444107 C4.26549292,3.00581584 4.19641315,3.00053913 4.13110309,3.00004649 Z M4.18791678,3.92129955 C4.28197207,3.93028177 4.35247832,3.95854121 4.40096813,4.00766703 C5.05216848,4.66762969 6.25958442,6.41465945 6.545685,6.99454219 C6.61923214,7.14362397 6.57718296,7.29056383 6.39654906,7.55593078 C6.21591515,7.82129772 5.91933836,8.10717406 5.68637791,8.35482992 C5.42364844,8.63415384 5.18008087,8.86474349 4.96910504,9.11774261 C4.75812945,9.37076476 4.57001363,9.67687412 4.55010407,10.0533902 C4.53019428,10.4299524 4.66997914,10.7974288 4.93359649,11.1977593 C5.18940718,11.5862287 5.58495501,12.0347983 6.12668402,12.5868362 C6.13425615,12.5946668 6.13325395,12.6005974 6.14088744,12.608428 C6.14775054,12.6157981 6.15485452,12.6231105 6.16219258,12.6300199 L7.76717937,14.2566073 C7.77853529,14.2667411 7.79038572,14.2764143 7.80268793,14.2853965 C8.35158023,14.8391848 8.78794052,15.2338956 9.17331825,15.4945411 C9.56833203,15.7617045 9.93803668,15.9105445 10.3095921,15.8903921 C10.6811477,15.8701245 10.9831661,15.6795518 11.2328146,15.465752 C11.482463,15.2519292 11.7099914,14.9978936 11.985596,14.7316285 C12.2299708,14.4955343 12.5049406,14.1949755 12.7667843,14.0118995 C13.0286281,13.8288465 13.1736242,13.7934013 13.3207178,13.8679537 C13.8929198,14.1578951 15.6167284,15.3815725 16.267928,16.0415352 C16.3649106,16.1398329 16.3988661,16.3206633 16.3105383,16.6245156 C16.2222103,16.9283679 16.0034376,17.2796647 15.7850117,17.5025849 C14.2406335,19.0668035 13.0752397,19.7271002 11.7725447,19.5538125 C10.4686916,19.3803635 8.86783921,18.2941831 6.64510896,16.0415352 L4.40096813,13.7671917 C2.17823901,11.5145667 1.10647553,9.89210187 0.935332916,8.5707486 C0.764190305,7.24934927 1.40578846,6.06431843 2.95221898,4.49708272 C3.17218137,4.27572864 3.52590523,4.06118031 3.82572949,3.97168058 C3.97564151,3.92690768 4.09386126,3.91217915 4.18791678,3.92129955 Z" id="Call_ico" fill="#FFFFFF" fill-rule="nonzero"></path>
                        <path d="M19.4328758,0.00373026247 C19.4281003,0.00604535696 19.4233651,0.00844481953 19.4186724,0.010927552 C19.3185056,0.0255934891 19.2260331,0.0737184635 19.155909,0.147676053 L14.4758812,4.89068987 L10.5699399,0.939377904 L12.657843,0.939377904 C12.8217555,0.941727233 12.9742186,0.854449751 13.0568514,0.710965713 C13.1394841,0.567481676 13.1394841,0.39002107 13.0568514,0.246537032 C12.9742186,0.103052995 12.8217555,0.0157755129 12.657843,0.0181248416 L9.56149682,0.0181248416 C9.54741397,0.0150427295 9.53319449,0.0126409215 9.51888655,0.010927552 C9.51651935,0.0109088107 9.51415204,0.0109088107 9.51178484,0.010927552 C9.49995317,0.0104588465 9.48810795,0.0104588465 9.47627628,0.010927552 C9.47390908,0.0109088107 9.47154177,0.0109088107 9.46917457,0.010927552 C9.45497896,0.0102525026 9.44075992,0.0102525026 9.4265643,0.010927552 C9.39753626,0.0153196694 9.36899618,0.0225507155 9.34134376,0.0325194207 C9.29067436,0.0456687814 9.24262439,0.0675822704 9.19930953,0.0972950266 C9.17902731,0.112464787 9.16002402,0.129316449 9.14249584,0.147676053 C9.13261329,0.156843914 9.12313511,0.16644966 9.114089,0.176465212 C9.1140705,0.178864272 9.1140705,0.181263441 9.114089,0.183662501 C9.10420645,0.192830361 9.09472826,0.202436108 9.08568215,0.212451659 C9.08566366,0.214850719 9.08566366,0.217249889 9.08568215,0.219648949 C9.00137869,0.338383222 8.97766172,0.490612287 9.02176675,0.629894453 L9.02176675,3.70313709 C9.01944862,3.86925556 9.10556708,4.02377064 9.24714569,4.10751547 C9.38872429,4.1912603 9.56382827,4.1912603 9.70540688,4.10751547 C9.84698549,4.02377064 9.93310395,3.86925556 9.93078582,3.70313709 L9.93078582,1.58713396 L14.0923888,5.80474564 C14.1260106,5.85616769 14.1694804,5.90022254 14.2202196,5.93429685 C14.2225868,5.93431559 14.2249541,5.93431559 14.2273213,5.93429685 C14.2496477,5.95085156 14.2734187,5.96530612 14.2983384,5.97748059 C14.3007056,5.97749933 14.3030729,5.97749933 14.3054401,5.97748059 C14.3170718,5.9827815 14.3289185,5.98758394 14.3409487,5.99187517 C14.3433159,5.99189391 14.3456832,5.99189391 14.3480504,5.99187517 C14.3894244,6.00522298 14.4324721,6.01249414 14.4758812,6.01346704 C14.4782484,6.01348578 14.4806157,6.01348578 14.4829829,6.01346704 C14.4972908,6.01175367 14.5115103,6.00935186 14.5255932,6.00626975 C14.5543865,6.00422458 14.5829222,5.99940462 14.6108137,5.99187517 C14.6131809,5.99189391 14.6155482,5.99189391 14.6179154,5.99187517 C14.7209106,5.95907015 14.809022,5.89018369 14.8664753,5.79754835 L19.7950631,0.802629403 C19.9425377,0.667696739 19.9864535,0.451329669 19.903503,0.268360552 C19.8205525,0.0853914346 19.6299589,-0.0217779808 19.4328758,0.00373026247 L19.4328758,0.00373026247 Z" id="Path" fill="#00FFAA" transform="translate(14.472517, 3.006741) scale(-1, 1) translate(-14.472517, -3.006741) "></path>
                    </g>
                </g>
            </g>
        </g>
    </g>
</svg>