
<svg width="20px" height="21px" viewBox="0 0 20 21">
    <g id="Symbols" stroke="none" stroke-width="1" fill="none" fill-rule="evenodd">
        <g id="Меню_Desktop" transform="translate(-754.000000, -70.000000)">
            <g transform="translate(160.000000, 63.000000)" id="Call_desktop">
                <g transform="translate(594.000000, 7.000000)">
                    <path d="M4.13110309,3.52116286 C3.93517312,3.51968494 3.74243199,3.55355067 3.56296617,3.60753034 C3.08439104,3.75041669 2.64722263,4.02696534 2.31306495,4.36324574 C0.690666115,6.00747518 -0.186459795,7.5093595 0.0334155564,9.20702161 C0.253290907,10.9046377 1.48412136,12.6349352 3.75471238,14.9360641 L5.99885321,17.2104076 C8.26944536,19.5115365 9.9766909,20.7661335 11.6518156,20.9889846 C13.3269402,21.2117897 14.8088745,20.3228841 16.4312674,18.6786547 C16.7630839,18.340002 17.0430622,17.8897281 17.1840488,17.4047344 C17.3250377,16.9197407 17.3218493,16.3280314 16.9141838,15.9148955 C16.1167738,15.1067723 14.512876,13.9603765 13.7255153,13.5613818 C13.1928251,13.2914316 12.714143,13.4566353 12.255461,13.7773005 C11.8721538,14.045293 11.5656224,14.3925478 11.3606454,14.5905942 C11.0611518,14.8799367 10.8246059,15.1263259 10.6433725,15.281534 C10.4621389,15.4367421 10.3613303,15.4847279 10.2598801,15.4902554 C10.1584299,15.4957829 9.983996,15.4600037 9.67753977,15.2527448 C9.37289998,15.0467066 8.95634381,14.6795181 8.41343512,14.1299677 C8.41109212,14.1276645 8.4087264,14.1250735 8.40633341,14.1227704 L6.80844832,12.4961829 C6.26073502,11.941128 5.89799686,11.5184455 5.69347962,11.2078681 C5.48896237,10.8972907 5.45368698,10.7205022 5.45912314,10.6176904 C5.46455907,10.5149016 5.50481203,10.4126655 5.65797106,10.2290367 C5.81112987,10.0453619 6.06133486,9.81283762 6.34683707,9.50930777 C6.54223959,9.30158824 6.88490546,8.99091867 7.14933047,8.60244929 C7.41375571,8.21400293 7.66173112,7.72654491 7.35528011,7.10541306 C6.96159213,6.30744669 5.83753096,4.68917356 5.04012216,3.88102734 C4.83629009,3.67445937 4.58778382,3.57003534 4.32995101,3.53555744 C4.26549292,3.52693221 4.19641315,3.5216555 4.13110309,3.52116286 Z M4.18791678,4.44241593 C4.28197207,4.45139814 4.35247832,4.47965758 4.40096813,4.5287834 C5.05216848,5.18874606 6.25958442,6.93577582 6.545685,7.51565856 C6.61923214,7.66474034 6.57718296,7.81168021 6.39654906,8.07704715 C6.21591515,8.34241409 5.91933836,8.62829044 5.68637791,8.87594629 C5.42364844,9.15527022 5.18008087,9.38585986 4.96910504,9.63885898 C4.75812945,9.89188114 4.57001363,10.1979905 4.55010407,10.5745066 C4.53019428,10.9510688 4.66997914,11.3185451 4.93359649,11.7188757 C5.18940718,12.107345 5.58495501,12.5559147 6.12668402,13.1079525 C6.13425615,13.1157832 6.13325395,13.1217138 6.14088744,13.1295444 C6.14775054,13.1369144 6.15485452,13.1442269 6.16219258,13.1511363 L7.76717937,14.7777237 C7.77853529,14.7878575 7.79038572,14.7975307 7.80268793,14.8065129 C8.35158023,15.3603011 8.78794052,15.755012 9.17331825,16.0156575 C9.56833203,16.2828209 9.93803668,16.4316609 10.3095921,16.4115084 C10.6811477,16.3912409 10.9831661,16.2006682 11.2328146,15.9868684 C11.482463,15.7730455 11.7099914,15.51901 11.985596,15.2527448 C12.2299708,15.0166507 12.5049406,14.7160919 12.7667843,14.5330159 C13.0286281,14.3499629 13.1736242,14.3145177 13.3207178,14.3890701 C13.8929198,14.6790115 15.6167284,15.9026889 16.267928,16.5626515 C16.3649106,16.6609492 16.3988661,16.8417797 16.3105383,17.145632 C16.2222103,17.4494843 16.0034376,17.8007811 15.7850117,18.0237013 C14.2406335,19.5879199 13.0752397,20.2482165 11.7725447,20.0749288 C10.4686916,19.9014799 8.86783921,18.8152995 6.64510896,16.5626515 L4.40096813,14.288308 C2.17823901,12.0356831 1.10647553,10.4132182 0.935332916,9.09186498 C0.764190305,7.77046565 1.40578846,6.5854348 2.95221898,5.01819909 C3.17218137,4.79684501 3.52590523,4.58229669 3.82572949,4.49279695 C3.97564151,4.44802405 4.09386126,4.43329552 4.18791678,4.44241593 Z" id="Call_ico" fill="#FFFFFF" fill-rule="nonzero"></path>
                    <path d="M19.4921051,0.757403677 C19.4873296,0.759718771 19.4825944,0.762118234 19.4779016,0.764600967 C19.3777349,0.779266904 19.2852623,0.827391878 19.2151383,0.901349468 L14.5351104,5.64436328 L10.6291691,1.69305132 L12.7170723,1.69305132 C12.8809847,1.69540065 13.0334479,1.60812317 13.1160806,1.46463913 C13.1987133,1.32115509 13.1987133,1.14369448 13.1160806,1.00021045 C13.0334479,0.856726409 12.8809847,0.769448927 12.7170723,0.771798256 L9.62072607,0.771798256 C9.60664322,0.768716144 9.59242375,0.766314336 9.5781158,0.764600967 C9.5757486,0.764582225 9.57338129,0.764582225 9.57101409,0.764600967 C9.55918242,0.764132261 9.5473372,0.764132261 9.53550554,0.764600967 C9.53313833,0.764582225 9.53077103,0.764582225 9.52840382,0.764600967 C9.51420821,0.763925917 9.49998917,0.763925917 9.48579356,0.764600967 C9.45676551,0.768993084 9.42822543,0.77622413 9.40057302,0.786192835 C9.34990361,0.799342196 9.30185365,0.821255685 9.25853879,0.850968441 C9.23825656,0.866138202 9.21925327,0.882989863 9.2017251,0.901349468 C9.19184255,0.910517328 9.18236436,0.920123074 9.17331825,0.930138626 C9.17329976,0.932537686 9.17329976,0.934936856 9.17331825,0.937335916 C9.1634357,0.946503776 9.15395752,0.956109522 9.1449114,0.966125074 C9.14489291,0.968524134 9.14489291,0.970923304 9.1449114,0.973322364 C9.06060795,1.09205664 9.03689097,1.2442857 9.080996,1.38356787 L9.080996,4.45681051 C9.07867787,4.62292898 9.16479633,4.77744405 9.30637494,4.86118888 C9.44795355,4.94493371 9.62305752,4.94493371 9.76463613,4.86118888 C9.90621474,4.77744405 9.9923332,4.62292898 9.99001507,4.45681051 L9.99001507,2.34080738 L14.151618,6.55841905 C14.1852398,6.6098411 14.2287096,6.65389595 14.2794488,6.68797027 C14.281816,6.68798901 14.2841833,6.68798901 14.2865505,6.68797027 C14.308877,6.70452497 14.332648,6.71897953 14.3575676,6.731154 C14.3599348,6.73117275 14.3623022,6.73117275 14.3646694,6.731154 C14.376301,6.73645491 14.3881477,6.74125736 14.4001779,6.74554858 C14.4025451,6.74556732 14.4049124,6.74556732 14.4072796,6.74554858 C14.4486536,6.75889639 14.4917013,6.76616756 14.5351104,6.76714045 C14.5374776,6.76715919 14.5398449,6.76715919 14.5422121,6.76714045 C14.5565201,6.76542708 14.5707396,6.76302527 14.5848224,6.75994316 C14.6136158,6.757898 14.6421515,6.75307804 14.6700429,6.74554858 C14.6724101,6.74556732 14.6747775,6.74556732 14.6771447,6.74554858 C14.7801398,6.71274357 14.8682513,6.6438571 14.9257046,6.55122177 L19.8542923,1.55630282 C20.001767,1.42137015 20.0456827,1.20500308 19.9627322,1.02203397 C19.8797817,0.839064849 19.6891881,0.731895434 19.4921051,0.757403677 L19.4921051,0.757403677 Z" id="Path" fill="#00FFAA"></path>
                </g>
            </g>
        </g>
    </g>
</svg>