
<svg width="76px" height="58px" viewBox="0 0 76 58">
    <g id="STARS" stroke="none" stroke-width="1" fill="none" fill-rule="evenodd" stroke-linecap="round" stroke-linejoin="round">
        <g id="Desktop_Main" transform="translate(-625.000000, -3193.000000)" stroke="#0088FF">
            <g id="Эффективность" transform="translate(-291.000000, 2847.000000)">
                <g id="2" transform="translate(917.000000, 347.000000)">
                    <g id="Ico_usp-2">
                        <path d="M49.1620304,18.2345114 C51.4548042,17.9570557 53.1518009,17.7333705 53.1518009,17.7333705 L56.4210467,17.7333705 L56.4210467,17.7097114 C57.0232762,17.5397967 57.4878532,16.4106164 57.4878532,15.0405443 C57.4878532,13.6704722 57.0232762,12.5412919 56.4210467,12.3735279 L56.4210467,12.3240591 L53.2120238,12.3240591 C53.2120238,12.3240591 51.9860566,12.1412394 50.0825812,11.9132525 C50.0780645,11.9111017 50.073978,11.9111017 50.0694612,11.9111017" id="Shape"></path>
                        <path d="M26.6395177,11.4872911 C23.3395151,11.8342183 20.9387702,12.192975 20.9387702,12.192975 L17.1711794,12.192975 L17.1711794,12.2422288 C16.5695952,12.4110681 16.1048031,13.5400334 16.1048031,14.9105356 C16.1048031,16.281253 16.5695952,17.4100031 17.1711794,17.5786274 L17.1711794,17.6027166 L20.9998535,17.6027166 C20.9998535,17.6027166 21.662521,17.6975677 22.7368554,17.8397369" id="Shape"></path>
                        <path d="M2.03273964,26.9330915 L0.27057311,22.5187492 C0.0920550805,22.0709486 0,21.5932516 0,21.1112529 L0,7.90199408 C0,7.31697114 0.135286555,6.73990623 0.395105567,6.21575148 L2.40870291,2.15435876 C3.04943208,0.861931241 4.36702419,0.0444046973 5.809794,0.0444046973 L14.8729178,0.0444046973 C13.7437375,0.746862391 12.3022582,7.73379998 12.3022582,7.73379998 L12.4082936,21.1594312 C12.4082936,21.1594312 13.4510109,28.5018993 14.5801912,29.3217918 L5.55857827,29.3217918 C4.00525633,29.3217918 2.60851406,28.3756462 2.03273964,26.9330915 Z" id="Shape"></path>
                        <path d="M0,21.6587457 C3.10900979,21.7056335 6.21866482,21.7112257 9.32788968,21.675307" id="Shape"></path>
                        <path d="M3.81429546,6 L12.1334507,6" id="Shape"></path>
                        <path d="M18.4407259,12.341716 L18.4407259,8.13815407 L17.5567391,3.04952989 C17.4851168,2.63786302 17.2782079,2.26168466 16.968705,1.9810027 L14.8333712,0.0444046973" id="Shape"></path>
                        <path d="M14.4095606,29.3513353 L16.6498544,26.0655281 C17.1985285,25.2606914 17.5587908,24.3422914 17.7028957,23.3787242 L18.3094268,19.3272253 L18.3094268,17.8444502" id="Shape"></path>
                        <path d="M71.7498525,26.9330915 L73.511804,22.5187492 C73.6905371,22.0709486 73.7823771,21.5932516 73.7823771,21.1112529 L73.7823771,7.90199408 C73.7823771,7.31697114 73.6470905,6.73990623 73.3872715,6.21575148 L71.3738893,2.15435876 C70.7331601,0.861931241 69.4153529,0.0444046973 67.9727982,0.0444046973 L58.9096744,0.0444046973 C60.0388547,0.746862391 61.480334,7.73379998 61.480334,7.73379998 L61.3742986,21.1594312 C61.3742986,21.1594312 60.3313662,28.5018993 59.2021859,29.3217918 L68.2237988,29.3217918 C69.7773359,29.3217918 71.1740781,28.3756462 71.7498525,26.9330915 Z" id="Shape"></path>
                        <path d="M73.747102,21.6587457 C70.6380922,21.7056335 67.5286522,21.7112257 64.4192123,21.675307" id="Shape"></path>
                        <path d="M69.7719084,6 L61.452538,6" id="Shape"></path>
                        <path d="M55.5191895,12.341716 L55.5191895,8.13815407 L56.4033915,3.04952989 C56.4750138,2.63786302 56.6819226,2.26168466 56.9914256,1.9810027 L59.1265442,0.0444046973" id="Shape"></path>
                        <path d="M59.4192708,29.3513353 L57.178977,26.0655281 C56.630303,25.2606914 56.2702558,24.3422914 56.1259358,23.3787242 L55.5191895,19.3272253 L55.5191895,17.8444502" id="Shape"></path>
                        <path d="M26.2762576,13.7983317 L26.2762576,9.76124322 C26.2762576,8.13952521 27.5925593,6.82537441 29.2142773,6.82537441 C30.0251363,6.82537441 30.7585658,7.152299 31.291969,7.68570227 C31.8232215,8.21695472 32.1522969,8.94823339 32.1522969,9.76124322 L32.1522969,10.9183842" id="Shape"></path>
                        <path d="M49.9514821,16.3076929 C49.9514821,17.9298411 48.6362559,19.2452824 47.0138926,19.2452824 C45.3913143,19.2452824 44.0763031,17.9298411 44.0763031,16.3076929 L44.0763031,9.76296387 C44.0763031,8.14060062 45.3913143,6.82537441 47.0138926,6.82537441 C48.6362559,6.82537441 49.9514821,8.14060062 49.9514821,9.76296387 L49.9514821,16.3076929 Z" id="Shape"></path>
                        <path d="M44.0181336,17.5910047 C44.0181336,19.2133679 42.7029074,20.5285941 41.0805441,20.5285941 C39.4583959,20.5285941 38.1429546,19.2133679 38.1429546,17.5910047 L38.1429546,8.49174713 C38.1429546,6.86938388 39.4583959,5.55394259 41.0805441,5.55394259 C42.7029074,5.55394259 44.0181336,6.86938388 44.0181336,8.49174713 L44.0181336,17.5910047 Z" id="Shape"></path>
                        <path d="M38.1390947,28.5006936 C38.0287577,26.2591094 38.5114016,22.4093573 30.1365401,22.4093573 L29.5242017,19.7068524 C30.4606686,19.131078 31.3812194,18.147078 32.2759604,16.7927069 C34.1904049,13.8951227 32.8205479,11.647086 31.5365086,11.4928722 C30.2528994,11.3386584 25.2703107,14.4048669 23.2261717,17.6414203 C22.6245874,18.5938032 22.9530176,22.8367251 23.2050937,26.8611238 C23.3281205,28.8314896 27.5420064,31.5634607 29.5925978,32.8096456 C29.5925978,32.8096456 30.0533034,32.8718043 31.8922542,32.8718043" id="Shape"></path>
                        <path d="M44.0763031,32.7933911 C44.0763031,32.7933911 44.810808,32.8000586 46.0049431,32.8000586 C46.6822362,32.8000586 47.6232198,31.9111248 48.0527385,31.1647904 C49.3858165,28.8436259 50.573284,23.9120115 50.573284,18.2682608" id="Shape"></path>
                        <path d="M29.8793594,32.6778214 C29.8793594,32.6778214 30.8685214,39.578081 30.4559942,45.264633 C30.043467,50.9516152 29.2429319,56.398566 29.2429319,56.398566" id="Shape"></path>
                        <path d="M46.7176194,56.689671 C46.7176194,56.689671 46.0504352,51.7105236 45.8572916,46.416281 C45.6643631,41.1222536 45.8572916,33.1016321 45.8572916,33.1016321" id="Shape"></path>
                        <path d="M36,33.1016321 L36,34.9481107" id="Shape"></path>
                        <path d="M32.2096061,17.4623857 C32.2096061,17.6060604 32.2096061,17.7527463 32.2096061,17.8925496 C32.2096061,18.5377955 32.7408586,19.2761719 32.7408586,19.2761719 C32.8397963,19.418126 32.9494881,19.549326 33.069934,19.6697719 C33.6011864,20.2010243 34.3346159,20.5300997 35.1476258,20.5300997 C36.0552717,20.5300997 36.8659156,20.1171424 37.4036205,19.4718965 C37.7412992,19.0675424 37.9716519,18.570703 38.0533831,18.0265457 L38.0533831,18.0243948 C38.0748913,17.8824407 38.0854303,17.7383358 38.0854303,17.5920801 L38.0854303,8.49196221 C38.0854303,8.34570648 38.0746762,8.20160156 38.0533831,8.05964747 C37.958747,7.42085403 37.6597831,6.84873601 37.2251025,6.41427044 C36.6919143,5.88301799 35.9582697,5.55394259 35.1476258,5.55394259 C33.5259078,5.55394259 32.2096061,6.87024421 32.2096061,8.49196221 L32.2096061,9.76954908 L32.2096061,11.356854" id="Shape"></path>
                    </g>
                </g>
            </g>
        </g>
    </g>
</svg>